<svg xmlns="http://www.w3.org/2000/svg" width="15" height="19" viewBox="0 0 15 19">
    <path fill="#666" fill-rule="evenodd" stroke="#666" stroke-width=".5" d="M13.686 13.618c-.093-.031-.154-.154-.154-.278V8.721c0-2.925-2.124-5.388-4.834-5.882.154-.215.215-.43.215-.708 0-.677-.554-1.232-1.231-1.232-.678 0-1.232.555-1.232 1.232 0 .247.093.493.215.708-1.139.186-2.186.739-3.048 1.54A5.873 5.873 0 0 0 1.831 8.6v4.74c0 .124-.061.247-.154.277-1.225.46-.942 2.371.523 2.371h3.048c.154 1.2 1.2 2.156 2.432 2.156s2.279-.955 2.433-2.156l3.05.001c1.446 0 1.76-1.906.523-2.37zM7.682 1.516a.617.617 0 0 1 0 1.232.617.617 0 0 1 0-1.232zm0 16.012a1.852 1.852 0 0 1-1.817-1.54H9.5c-.155.863-.894 1.54-1.817 1.54zm5.48-2.155H2.2c-.65 0-.98-.817-.308-1.2.34-.124.555-.462.555-.833V8.6c0-1.447.554-2.772 1.6-3.757a5.202 5.202 0 0 1 3.635-1.478c2.922 0 5.234 2.485 5.234 5.357v4.62c0 .368.216.708.555.83.601.228.46 1.202-.308 1.202z"/>
</svg>
