<svg xmlns="http://www.w3.org/2000/svg" xmlns:xlink="http://www.w3.org/1999/xlink" width="69" height="30" viewBox="0 0 69 30">
    <defs>
        <path id="a" d="M.037.009H10.7v15.89H.037z"/>
        <path id="c" d="M12.532.275V9.28H.36V.275h12.172z"/>
    </defs>
    <g fill="none" fill-rule="evenodd">
        <path fill="#052F4B" d="M6.113 9.329c-.678.377-1.191.857-1.54 1.438a6.86 6.86 0 0 0-.755 1.728 6.46 6.46 0 0 0-.233 1.7c0 1.277.325 2.256.974 2.933.648.678 1.437 1.017 2.367 1.017 1.026 0 1.956-.392 2.789-1.177.832-.784 1.249-1.825 1.249-3.122 0-1.337-.581-2.46-1.743-3.37-.523-.368-.785-.804-.785-1.307 0-.097.02-.242.059-.436-.91.02-1.704.218-2.382.596m7.291 4.11c0 2.285-.615 4-1.845 5.142-1.23 1.142-2.677 1.713-4.342 1.713-.794 0-1.53-.096-2.208-.29a6.638 6.638 0 0 1-1.96-.944c-.63-.436-1.13-1.08-1.497-1.932C1.184 16.276 1 15.25 1 14.05c0-1.123.237-2.26.712-3.413.474-1.152 1.24-2.164 2.295-3.036a5.56 5.56 0 0 1 3.645-1.307c.697 0 1.298.136 1.801.407.504.27.755.677.755 1.22v.203c2.13.794 3.196 2.566 3.196 5.316"/>
        <g transform="translate(14.528 4.367)">
            <mask id="b" fill="#fff">
                <use xlink:href="#a"/>
            </mask>
            <path fill="#052F4B" d="M2.565 3.64c0-.542-.097-.814-.29-.814-.098 0-.165.165-.204.495-.039.329-.058.905-.058 1.728s-.01 1.447-.03 1.874c.388-1.201.582-2.295.582-3.283m7.828 9.092c.204.155.306.34.306.552 0 .484-.223.93-.669 1.337-.89.852-1.985 1.278-3.282 1.278-1.085 0-1.98-.382-2.687-1.148C3.354 13.986 3 13.275 3 12.616c0-.29.096-.542.29-.755.194-.213.387-.339.581-.378a2.64 2.64 0 0 0 1.162-.523c.349-.27.523-.542.523-.813 0-.213-.116-.32-.349-.32-.31 0-.726.199-1.25.596-.522.397-1.035.993-1.538 1.787 0 .232.01.58.029 1.045.02.465.028.775.028.93 0 .93-.406 1.394-1.22 1.394-.793 0-1.19-.455-1.19-1.365 0-.077.01-.354.029-.828.019-.474.038-1.065.058-1.772.02-.707.029-1.4.029-2.077 0-1.782-.03-3.331-.087-4.648L.037 2.943c0-.891.257-1.603.77-2.135.513-.533 1.041-.8 1.583-.8.543 0 .988.233 1.337.698.484.697.726 1.423.726 2.179 0 2.053-.63 4.212-1.888 6.478.871-.814 1.534-1.356 1.99-1.627.455-.271.934-.407 1.438-.407.522 0 .939.19 1.249.567.31.378.465.847.465 1.409 0 .658-.165 1.23-.495 1.713-.716 1.066-1.404 1.656-2.062 1.773.31.716.833 1.074 1.569 1.074.58 0 1.19-.227 1.83-.682.639-.455 1.046-.683 1.22-.683.213 0 .421.077.624.232" mask="url(#b)"/>
        </g>
        <path fill="#052F4B" d="M29.032 17.448c.523-.388.92-.581 1.19-.581.253 0 .46.096.626.29.164.194.246.387.246.581 0 .523-.372 1.065-1.118 1.627-.746.562-1.65.842-2.716.842-1.394 0-2.314-.479-2.76-1.437-.445-.96-.58-2.455-.406-4.489-.95-.31-1.404-.794-1.365-1.452.057-.64.493-.959 1.307-.959h.29c.62-3.33 1.52-4.996 2.702-4.996.387 0 .663.232.827.697.165.465.218 1.027.16 1.685a16.132 16.132 0 0 1-.668 2.963c.349-.02.697-.03 1.046-.03.31 0 .557.05.74.146.185.097.267.271.248.523-.097 1.027-1.056 1.578-2.876 1.656-.136.329-.233.532-.29.61-.04 1.936.445 2.905 1.452 2.905.387 0 .842-.194 1.365-.581"/>
        <path fill="#052F4B" d="M32.01 15.095c-.32.445-.48.92-.48 1.423 0 .465.13.847.392 1.148.262.3.596.45 1.002.45.543 0 .964-.17 1.264-.508.3-.34.45-.722.45-1.148 0-.116-.038-.29-.116-.523-.736-.27-1.104-.707-1.104-1.307 0-.135.03-.28.087-.436-.678.155-1.176.455-1.496.9m7.48-1.045c0 .775-.3 1.35-.9 1.729-.6.377-1.22.566-1.86.566h-.232c.078.174.116.407.116.697 0 .775-.339 1.51-1.016 2.208-.678.697-1.608 1.046-2.79 1.046-.929 0-1.723-.354-2.381-1.06-.658-.707-.988-1.565-.988-2.572 0-.542.107-1.147.32-1.815.213-.668.624-1.312 1.234-1.932.61-.62 1.361-.93 2.252-.93.542 0 .949.093 1.22.276.27.185.406.412.406.683 0 .252-.038.446-.116.581.31.039.644.194 1.003.465.358.271.673.407.944.407.251 0 .503-.126.755-.378.465-.504.92-.755 1.365-.755.174 0 .34.077.494.232.116.136.174.32.174.552"/>
        <path fill="#052F4B" d="M37.891 14.05c0-.427.13-.79.392-1.09.261-.3.605-.45 1.031-.45.542 0 .96.416 1.25 1.249 1.084-1.046 2.14-1.569 3.166-1.569.794 0 1.481.402 2.062 1.206.581.803.872 1.747.872 2.832 0 1.181-.378 2.145-1.133 2.89-.756.746-1.588 1.118-2.498 1.118-.659 0-1.143-.125-1.453-.377-.31-.252-.465-.562-.465-.93 0-.27.068-.532.204-.784.155-.271.411-.44.77-.508.358-.068.687-.087.987-.059.3.03.571-.067.814-.29.241-.223.363-.605.363-1.147 0-.407-.083-.794-.248-1.162-.164-.368-.391-.552-.682-.552-.484 0-1.08.43-1.786 1.292-.707.862-1.06 1.593-1.06 2.194 0 .27.004.9.014 1.888.01.987.014 1.607.014 1.859v1.249c0 .155-.005.373-.014.654-.01.28-.024.503-.044.668l-.072.595a1.737 1.737 0 0 1-.145.552 8.58 8.58 0 0 1-.218.407.698.698 0 0 1-.29.29.891.891 0 0 1-.408.088c-.832 0-1.249-.552-1.249-1.656 0-.368.015-.915.044-1.642.029-.726.043-1.254.043-1.583 0-2.246-.087-4.619-.261-7.117v-.116zM55 19.7c-.426-.301-.716-.645-.87-1.032-.718.93-1.59 1.394-2.615 1.394-1.162 0-2.024-.33-2.585-.987-.833-.872-1.25-2.101-1.25-3.69 0-.716.107-1.39.32-2.019.213-.629.542-.944.987-.944.35 0 .635.102.857.305.223.204.334.48.334.828 0 .194-.043.552-.13 1.075-.087.523-.13.997-.13 1.424 0 1.278.512 1.916 1.538 1.916.62 0 1.032-.145 1.235-.435.203-.29.324-.687.363-1.19l.073-1.367c.029-.561.058-.963.087-1.205.029-.242.083-.518.16-.828.077-.31.198-.518.363-.625.165-.106.382-.16.654-.16.348 0 .624.103.827.306.204.203.306.48.306.828 0 .232-.025.77-.073 1.612a43.57 43.57 0 0 0-.073 1.496c0 1.104.3 1.656.9 1.656.35 0 .785-.199 1.308-.596.523-.397.91-.595 1.162-.595.232 0 .445.077.639.232.194.155.29.349.29.581 0 .426-.184.823-.551 1.191-.852.852-1.772 1.278-2.76 1.278-.484 0-.94-.15-1.366-.45"/>
        <g transform="translate(56.993 11.131)">
            <mask id="d" fill="#fff">
                <use xlink:href="#c"/>
            </mask>
            <path fill="#052F4B" d="M7.129 6.81a.826.826 0 0 0-.145-.493c-1.259-.097-1.888.077-1.888.523 0 .232.116.411.348.537.233.126.503.189.814.189.58 0 .87-.252.87-.755m-.841-2.092c-.35-.407-.543-1.046-.581-1.917l-.8 1.394c-.357.64-.566 1.007-.624 1.104.484-.29 1.152-.484 2.005-.581m5.97-.711a.835.835 0 0 1 .275.653c0 .368-.174.687-.523.959-.794.697-1.781 1.045-2.963 1.045.039.775-.193 1.405-.697 1.889s-1.172.726-2.004.726c-.833 0-1.55-.228-2.15-.683-.6-.455-.9-.992-.9-1.612 0-.213.02-.378.057-.494C2.597 7.556 1.968 8.09 1.465 8.09c-.33 0-.596-.107-.8-.32C.463 7.556.36 7.324.36 7.072c0-.349.165-.659.495-.93a10.1 10.1 0 0 0 .755-.711l.61-.64c.155-.164.368-.45.64-.856l.536-.8c.087-.125.31-.469.669-1.03.358-.562.575-.91.653-1.046.33-.523.726-.784 1.191-.784.542 0 .963.087 1.263.261.3.174.45.387.45.639 0 .194-.023.422-.072.683-.048.261-.072.47-.072.624 0 .562.3 1.307.9 2.237.543.04.973.02 1.293-.058.32-.077.673-.261 1.06-.552.31-.233.6-.349.872-.349a.95.95 0 0 1 .653.248" mask="url(#d)"/>
        </g>
    </g>
</svg>
